<svg width="560" height="560" viewBox="0 0 560 560" fill="none" xmlns="http://www.w3.org/2000/svg">
<rect width="560" height="560" fill="white"/>
<path d="M197.28 412.368C198.336 416.832 199.824 420 201.744 421.872C203.664 423.744 206.16 424.68 209.232 424.68C212.304 424.68 214.536 423.96 215.928 422.52C217.32 421.032 218.016 419.208 218.016 417.048C218.016 414.888 217.152 412.992 215.424 411.36C213.744 409.728 211.68 408.312 209.232 407.112C206.832 405.912 204.408 404.64 201.96 403.296C199.56 401.952 197.496 400.2 195.768 398.04C194.088 395.832 193.248 393.288 193.248 390.408C193.248 385.992 194.928 382.656 198.288 380.4C201.648 378.144 205.896 377.016 211.032 377.016C216.216 377.016 221.04 378.072 225.504 380.184C225.984 381.144 226.224 383.184 226.224 386.304C226.224 389.376 226.104 391.776 225.864 393.504L221.328 393.36C220.992 385.776 217.224 381.984 210.024 381.984C208.104 381.984 206.52 382.56 205.272 383.712C204.024 384.816 203.4 386.256 203.4 388.032C203.4 389.808 204 391.368 205.2 392.712C206.448 394.056 207.984 395.208 209.808 396.168C211.68 397.08 213.672 398.16 215.784 399.408C217.944 400.608 219.936 401.832 221.76 403.08C223.632 404.28 225.168 405.888 226.368 407.904C227.616 409.92 228.24 412.152 228.24 414.6C228.24 418.92 226.608 422.544 223.344 425.472C220.128 428.4 215.976 429.864 210.888 429.864C205.8 429.864 200.136 428.736 193.896 426.48C193.656 425.712 193.296 423.84 192.816 420.864C192.384 417.888 192.072 415.392 191.88 413.376L197.28 412.368ZM249.261 415.824C246.237 416.448 244.173 417.192 243.069 418.056C241.965 418.872 241.413 419.856 241.413 421.008C241.413 422.112 241.797 423 242.565 423.672C243.381 424.344 244.437 424.68 245.733 424.68C247.029 424.68 248.253 424.152 249.405 423.096L249.261 415.824ZM262.725 424.032L263.301 426.984C262.485 427.32 260.781 427.896 258.189 428.712C255.645 429.48 254.061 429.864 253.437 429.864C252.813 429.864 252.357 429.792 252.069 429.648C251.781 429.504 251.517 429.24 251.277 428.856C251.037 428.472 250.869 428.184 250.773 427.992C250.677 427.752 250.533 427.344 250.341 426.768C250.149 426.144 250.029 425.76 249.981 425.616C247.389 428.448 244.437 429.864 241.125 429.864C238.965 429.864 237.141 429.192 235.653 427.848C234.165 426.456 233.421 424.752 233.421 422.736C233.421 420 234.501 417.984 236.661 416.688C238.869 415.344 242.997 414.024 249.045 412.728V410.136C249.045 407.352 248.733 405.288 248.109 403.944C247.485 402.552 246.381 401.856 244.797 401.856C243.261 401.856 242.061 402.096 241.197 402.576V407.184C241.197 407.472 240.429 407.76 238.893 408.048C237.357 408.336 236.229 408.48 235.509 408.48C234.789 408.48 234.429 407.616 234.429 405.888C234.429 405.072 234.573 404.208 234.861 403.296C235.149 402.384 235.461 401.736 235.797 401.352C236.661 400.392 238.509 399.384 241.341 398.328C244.221 397.272 246.405 396.744 247.893 396.744C251.013 396.744 253.437 397.704 255.165 399.624C256.941 401.544 257.829 404.376 257.829 408.12V422.736C257.829 423.648 258.213 424.104 258.981 424.104L260.925 424.032H262.725ZM278.999 398.04C279.047 398.376 279.071 398.664 279.071 398.904C279.071 399.144 279.095 399.504 279.143 399.984C279.191 400.464 279.215 400.824 279.215 401.064C282.863 399.144 285.527 397.944 287.207 397.464C288.887 396.984 290.327 396.744 291.527 396.744C294.311 396.744 296.567 397.752 298.295 399.768C300.023 401.784 300.887 404.712 300.887 408.552V423.528C300.887 423.96 300.911 424.32 300.959 424.608C301.055 424.848 301.343 425.112 301.823 425.4C302.303 425.64 302.999 425.76 303.911 425.76L304.703 429.216C299.663 429.072 296.495 429 295.199 429C293.903 429 291.647 429.072 288.431 429.216L287.711 425.76C289.343 425.712 290.447 425.52 291.023 425.184C291.599 424.8 291.911 424.248 291.959 423.528V410.712C291.959 408.168 291.527 406.296 290.663 405.096C289.847 403.848 288.431 403.224 286.415 403.224C284.447 403.224 282.167 403.776 279.575 404.88V423.528C279.575 423.96 279.599 424.32 279.647 424.608C279.743 424.848 280.031 425.112 280.511 425.4C280.991 425.64 281.687 425.76 282.599 425.76L283.391 429.216C278.351 429.072 275.183 429 273.887 429C272.591 429 270.335 429.072 267.119 429.216L266.399 425.76C268.031 425.712 269.135 425.52 269.711 425.184C270.287 424.8 270.599 424.248 270.647 423.528V406.248C270.647 405.096 270.383 404.304 269.855 403.872C269.327 403.392 268.655 403.152 267.839 403.152C267.071 403.152 266.495 403.176 266.111 403.224L265.103 400.272C268.079 399.552 272.111 398.184 277.199 396.168C277.823 396.168 278.207 396.312 278.351 396.6C278.543 396.84 278.687 397.056 278.783 397.248C278.879 397.44 278.951 397.704 278.999 398.04ZM320.186 418.56C320.186 420.48 320.546 421.992 321.266 423.096C322.034 424.2 323.018 424.752 324.218 424.752C325.418 424.752 326.834 424.128 328.466 422.88C328.85 422.592 329.138 422.568 329.33 422.808L330.77 424.752C329.522 425.952 328.538 426.84 327.818 427.416C325.754 429 323.306 429.792 320.474 429.792C317.642 429.792 315.362 428.856 313.634 426.984C311.954 425.064 311.114 422.928 311.114 420.576V402.576H307.514L307.154 399.912C309.794 399.048 311.786 397.896 313.13 396.456C314.522 394.968 315.818 393.024 317.018 390.624H318.746C319.226 390.624 319.538 390.72 319.682 390.912C319.826 391.104 319.898 391.44 319.898 391.92L320.186 398.04H329.33C329.426 398.472 329.474 399.072 329.474 399.84C329.474 400.608 329.162 401.52 328.538 402.576H320.258L320.186 418.56ZM363.339 412.008H343.755C343.755 414.792 344.283 417.408 345.339 419.856C345.963 421.296 346.971 422.472 348.363 423.384C349.803 424.296 351.435 424.752 353.259 424.752C355.083 424.752 356.763 424.392 358.299 423.672C359.883 422.904 360.939 422.256 361.467 421.728C362.043 421.152 362.451 421.008 362.691 421.296L363.843 422.88C362.211 424.896 360.171 426.576 357.723 427.92C355.323 429.216 352.971 429.864 350.667 429.864C345.483 429.864 341.475 428.4 338.643 425.472C335.811 422.496 334.395 418.512 334.395 413.52C334.395 408.48 335.979 404.424 339.147 401.352C342.315 398.28 345.939 396.744 350.019 396.744C354.099 396.744 357.435 397.92 360.027 400.272C362.667 402.624 363.987 406.176 363.987 410.928C363.987 411.648 363.771 412.008 363.339 412.008ZM355.707 407.688C355.707 403.32 353.907 401.136 350.307 401.136C348.531 401.136 347.091 401.808 345.987 403.152C344.883 404.496 344.235 406.008 344.043 407.688H355.707ZM359.811 379.824C360.003 379.968 360.099 380.088 360.099 380.184C360.099 380.28 360.075 380.352 360.027 380.4L348.291 392.136C346.851 391.8 345.987 391.104 345.699 390.048L351.963 377.016C354.267 377.016 356.883 377.952 359.811 379.824Z" fill="#252525"/>
<path d="M306.608 320.144L298.76 319.928C296.648 319.928 294.488 319.976 292.28 320.072L283.928 313.808C279.368 318.512 273.896 320.864 267.512 320.864C262.52 320.864 258.344 319.568 254.984 316.976C251.624 314.336 249.944 311.384 249.944 308.12C249.944 304.808 250.736 301.928 252.32 299.48C253.904 296.984 256.52 294.536 260.168 292.136C259.016 290.936 258.104 289.904 257.432 289.04C256.76 288.176 256.112 287 255.488 285.512C254.864 284.024 254.528 282.824 254.48 281.912C254.48 280.952 254.48 280.352 254.48 280.112C254.48 276.8 255.848 273.968 258.584 271.616C261.32 269.216 264.536 268.016 268.232 268.016C271.976 268.016 274.928 268.88 277.088 270.608C279.296 272.336 280.4 274.64 280.4 277.52C280.4 281.696 277.4 285.968 271.4 290.336L284.936 302.504C285.656 300.92 286.256 299.168 286.736 297.248C287.264 295.328 287.528 293.864 287.528 292.856C287.528 291.8 285.848 291.272 282.488 291.272L281.264 287.528L292.064 287.744L301.856 287.528L302.792 291.272C298.616 291.272 296.144 292.016 295.376 293.504L289.256 305.528L299.696 313.808C302.288 315.824 304.4 316.832 306.032 316.832L306.608 320.144ZM259.232 305.456C259.232 308.192 260.168 310.568 262.04 312.584C263.912 314.6 266.216 315.608 268.952 315.608C273.656 315.608 277.304 313.88 279.896 310.424L263.912 295.448C262.664 296.6 261.56 298.16 260.6 300.128C259.688 302.048 259.232 303.824 259.232 305.456ZM273.2 277.88C273.2 276.344 272.768 275 271.904 273.848C271.04 272.696 269.792 272.12 268.16 272.12C266.528 272.12 265.256 272.72 264.344 273.92C263.432 275.072 262.976 276.392 262.976 277.88C262.976 279.32 263.456 280.904 264.416 282.632C265.424 284.36 266.6 285.896 267.944 287.24C271.448 283.88 273.2 280.76 273.2 277.88Z" fill="#252525"/>
<rect x="174" y="101" width="208" height="123" rx="7" fill="#3DACDB"/>
<path d="M219.936 140.144V180.248C219.936 185.912 218.328 190.688 215.112 194.576C211.944 198.512 208.2 201.464 203.88 203.432C203.448 203.384 203.112 203.216 202.872 202.928C202.344 202.208 202.08 201.752 202.08 201.56C202.08 201.368 202.344 201.104 202.872 200.768C205.224 199.04 206.928 196.472 207.984 193.064C209.088 189.656 209.664 185.048 209.712 179.24L210 140.144C210 139.28 209.664 138.632 208.992 138.2C208.368 137.768 207.096 137.552 205.176 137.552L204.24 133.664C210 133.808 213.936 133.88 216.048 133.88C218.208 133.88 221.112 133.808 224.76 133.664L225.624 137.552C223.32 137.6 221.784 137.84 221.016 138.272C220.296 138.704 219.936 139.328 219.936 140.144ZM280.853 133.592L287.981 133.88C289.757 133.88 292.469 133.808 296.117 133.664L296.981 137.552C294.677 137.6 293.141 137.84 292.373 138.272C291.653 138.704 291.293 139.328 291.293 140.144V178.736C291.293 179.6 291.605 180.248 292.229 180.68C292.901 181.112 294.197 181.328 296.117 181.328L297.053 185.216C291.293 185.072 287.357 185 285.245 185C283.133 185 280.229 185.072 276.533 185.216L275.669 181.328C277.973 181.28 279.485 181.04 280.205 180.608C280.973 180.176 281.357 179.552 281.357 178.736V148.784C279.965 151.712 277.277 157.352 273.293 165.704C269.309 174.008 266.285 180.344 264.221 184.712L262.349 185.576L243.341 147.272V178.736C243.341 179.6 243.653 180.248 244.277 180.68C244.949 181.112 246.245 181.328 248.165 181.328L249.101 185.216C243.341 185.072 239.789 185 238.445 185C237.101 185 234.581 185.072 230.885 185.216L230.021 181.328C234.149 181.232 236.213 180.368 236.213 178.736V140.144C236.213 138.416 234.437 137.552 230.885 137.552L229.949 133.664C235.709 133.808 239.597 133.88 241.613 133.88C243.629 133.88 245.261 133.808 246.509 133.664C247.421 136.352 249.077 140.072 251.477 144.824C253.925 149.528 255.485 152.672 256.157 154.256C257.261 157.184 260.141 162.8 264.797 171.104C266.717 166.784 268.397 162.92 269.837 159.512C271.325 156.056 272.597 153.152 273.653 150.8C274.757 148.448 275.789 146.168 276.749 143.96C279.485 137.96 280.853 134.504 280.853 133.592ZM330.475 138.056C324.955 138.056 320.707 140 317.731 143.888C314.803 147.728 313.339 152.72 313.339 158.864C313.339 164.96 315.067 170.12 318.523 174.344C321.979 178.568 326.467 180.68 331.987 180.68C339.331 180.68 344.491 177.008 347.467 169.664L352.363 170.744C352.363 171.176 351.739 173.144 350.491 176.648C349.243 180.104 348.475 181.808 348.187 181.76C343.195 184.496 337.315 185.864 330.547 185.864C322.195 185.864 315.355 183.536 310.027 178.88C304.747 174.224 302.107 168.08 302.107 160.448C302.107 151.808 304.843 145.088 310.315 140.288C315.835 135.44 322.891 133.016 331.483 133.016C335.275 133.016 339.379 133.544 343.795 134.6C346.051 135.032 348.091 135.392 349.915 135.68C350.443 136.784 350.707 138.68 350.707 141.368C350.707 144.056 350.563 146.792 350.275 149.576L345.091 149C344.755 146.168 344.083 144.008 343.075 142.52C341.011 139.544 336.811 138.056 330.475 138.056Z" fill="white"/>
<rect x="174" y="101" width="208" height="123" rx="7" stroke="#252525" stroke-width="2"/>
</svg>
